<svg width="40" height="25" viewBox="0 0 40 25" fill="none" xmlns="http://www.w3.org/2000/svg">
<path d="M39.3949 0.0812988L38.1989 2.85063H35.0936L29.5012 19.4666H8.18938L0.760254 4.2353H27.8239L26.9159 7.00463H5.60247L10.3304 16.6973H27.1172L32.6419 0.0812988H39.3949ZM14.4434 20.8513C13.1105 20.8513 12.0287 21.7818 12.0287 22.9283C12.0287 24.0762 13.1105 25.0053 14.4434 25.0053C15.7763 25.0053 16.858 24.0762 16.858 22.9283C16.858 21.7818 15.7763 20.8513 14.4434 20.8513ZM25.5508 11.1586L22.4923 20.8513C21.1594 20.8513 20.0776 21.7804 20.0776 22.9283C20.0776 24.0762 21.1594 25.0053 22.4923 25.0053C23.8252 25.0053 24.9069 24.0762 24.9069 22.9283C24.9069 21.7818 23.8252 20.8513 22.4923 20.8513L25.5508 11.1586Z" fill="white"/>
</svg>
