<!-- icon666.com - MILLIONS vector ICONS FREE --><svg enable-background="new 0 0 460 420" viewBox="0 0 460 420" xmlns="http://www.w3.org/2000/svg"><g id="shopping_x2C__cart"><g><g><path d="m382.232 280h-244.465c-15.285 0-28.024-10.971-30.292-26.087l-27.364-182.43c-.432-2.879.412-5.803 2.312-8.009 1.899-2.205 4.666-3.474 7.577-3.474h322.09c8.132 0 15.839 3.534 21.146 9.696s7.658 14.309 6.452 22.351c-.009.057-.018.114-.027.171l-27.149 161.79c-2.307 15.067-15.026 25.992-30.28 25.992zm-280.62-200 25.642 170.946c.787 5.246 5.209 9.054 10.514 9.054h244.465c5.22 0 9.74-3.893 10.514-9.054.009-.058.018-.114.027-.172l27.145-161.763c.438-3.083-.96-5.246-1.838-6.264-.883-1.026-2.836-2.747-5.99-2.747z"></path></g><g><path d="m180 380c-22.056 0-40-17.944-40-40s17.944-40 40-40 40 17.944 40 40-17.944 40-40 40zm0-60c-11.028 0-20 8.972-20 20s8.972 20 20 20 20-8.972 20-20-8.972-20-20-20z"></path></g><g><path d="m340 380c-22.056 0-40-17.944-40-40s17.944-40 40-40 40 17.944 40 40-17.944 40-40 40zm0-60c-11.028 0-20 8.972-20 20s8.972 20 20 20 20-8.972 20-20-8.972-20-20-20z"></path></g><g><path d="m89.988 80.001c-4.8 0-9.037-3.466-9.852-8.357l-8.607-51.644h-41.529c-5.523 0-10-4.477-10-10s4.477-10 10-10h50c4.888 0 9.06 3.534 9.864 8.356l10 60c.908 5.448-2.772 10.6-8.22 11.508-.556.093-1.11.137-1.656.137z"></path></g><g><path d="m180 280c-5.523 0-10-4.478-10-10v-110c0-5.523 4.477-10 10-10s10 4.477 10 10v110c0 5.522-4.477 10-10 10z"></path></g><g><path d="m340 280c-5.522 0-10-4.478-10-10v-110c0-5.523 4.478-10 10-10s10 4.477 10 10v110c0 5.522-4.478 10-10 10z"></path></g><g><path d="m450 380h-440c-5.523 0-10-4.478-10-10s4.477-10 10-10h440c5.522 0 10 4.478 10 10s-4.478 10-10 10z"></path></g><g><path d="m370 420h-280c-5.523 0-10-4.478-10-10s4.477-10 10-10h280c5.522 0 10 4.478 10 10s-4.478 10-10 10z"></path></g></g></g></svg>