<svg width="80" height="80" viewBox="0 0 80 80" fill="none" xmlns="http://www.w3.org/2000/svg">
<path d="M79.9858 15.0109C79.5452 16.2937 79.5483 17.6484 79.3749 18.9719C78.7405 23.8156 78.1515 28.6593 77.5452 33.5031C77.2171 36.1328 76.878 38.7609 76.5624 41.3937C76.389 42.8406 75.9827 43.3375 74.5655 43.5312C70.5249 44.0859 66.4796 44.6094 62.4358 45.1484C57.5171 45.8047 52.5989 46.4625 47.6812 47.1219C42.4259 47.8219 37.1718 48.5198 31.9187 49.2156C29.3452 49.5594 26.7733 49.925 24.2015 50.2797C23.1952 49.1187 22.803 47.6969 22.5108 46.239C20.8608 38.0234 19.2171 29.8067 17.5796 21.589C16.9546 18.464 16.3546 15.3265 15.7437 12.1953C15.8483 12.1953 15.9515 12.1859 16.0562 12.1859C36.6624 12.187 57.2681 12.1875 77.8733 12.1875C78.8858 12.1875 79.553 12.5828 79.9858 13.4578V15.0109ZM31.2624 41.4672C31.2546 41.3922 31.2437 41.1828 31.2108 40.9781C30.5942 37.2656 29.9754 33.5531 29.3546 29.8406C28.8483 26.8187 28.353 23.7969 27.8187 20.7781C27.5812 19.4312 26.2562 18.7984 25.1843 19.4719C24.5233 19.8922 24.278 20.6312 24.4421 21.6094C25.1088 25.5781 25.7713 29.5469 26.4296 33.5156C26.89 36.2812 27.3551 39.0463 27.8249 41.8109C28.014 42.914 28.7749 43.5453 29.7437 43.4437C30.6562 43.35 31.2718 42.6031 31.2624 41.4672ZM39.9858 39.7812C39.4874 34.3125 39.0046 28.9219 38.503 23.539C38.4046 22.4812 38.4218 21.4062 38.1374 20.3734C38.0479 20.016 37.8375 19.7005 37.5419 19.4807C37.2462 19.2608 36.8836 19.15 36.5155 19.1672C35.7671 19.1672 35.2327 19.5437 34.9312 20.225C34.7577 20.6187 34.7999 21.0422 34.8358 21.4562C35.1062 24.5625 35.3749 27.6687 35.6593 30.7734C35.9405 33.8531 36.2202 36.9328 36.5374 40.0078C36.653 41.1281 37.4374 41.8015 38.3765 41.7156C39.3858 41.6219 40.0155 40.8265 39.9858 39.7812V39.7812ZM45.1983 29.5312C45.1983 32.3437 45.1843 35.1562 45.1983 37.9562C45.2077 39.1656 45.9124 39.9593 46.9093 39.9875C47.9327 40.0156 48.6546 39.2062 48.6999 37.9562C48.6999 37.775 48.6999 37.5922 48.6999 37.4109V28.125C48.6999 25.8359 48.6999 23.5484 48.6999 21.2594C48.6999 20.1312 48.2202 19.4312 47.3687 19.2281C46.1374 18.9312 45.2061 19.7812 45.1983 21.2594C45.1874 24.0187 45.1983 26.775 45.1983 29.5312ZM59.0624 21.4562C59.1187 20.0359 58.564 19.2687 57.5718 19.164C56.5624 19.0625 55.7515 19.7797 55.6249 20.9375C55.0572 25.9687 54.4942 31.0005 53.9358 36.0328C53.7999 37.2531 54.4421 38.1469 55.4843 38.2547C56.4358 38.3547 57.2249 37.6656 57.3765 36.4984C57.628 34.5672 57.8296 32.6312 58.0452 30.6953C58.3936 27.5515 58.7405 24.4031 59.0624 21.4562ZM69.5546 21.025C69.532 20.789 69.4944 20.5547 69.4421 20.3234C69.3351 19.975 69.119 19.6703 68.8255 19.4542C68.532 19.2381 68.1768 19.1221 67.8124 19.1234C66.964 19.1359 66.3437 19.6547 66.0937 20.6484C64.9562 25.1484 63.828 29.6505 62.7093 34.1547C62.5679 34.6069 62.6008 35.0957 62.8015 35.525C62.948 35.848 63.1935 36.1161 63.5025 36.2902C63.8115 36.4644 64.168 36.5357 64.5202 36.4937C65.3124 36.4359 65.8546 35.9031 66.0827 34.9828C66.9265 31.639 67.7629 28.2932 68.5921 24.9453C68.9171 23.614 69.2468 22.2812 69.5593 21.025H69.5546Z" fill="#299EF4"/>
<path d="M0.0141602 2.82807C0.729785 1.81401 1.75635 1.71245 2.89697 1.73432C5.83604 1.77963 8.77666 1.74682 11.7157 1.74995C13.136 1.74995 13.6688 2.17807 13.9657 3.59213C14.5673 6.45776 15.1563 9.3312 15.7438 12.2015C16.3548 15.3265 16.9563 18.4671 17.5798 21.5953C19.2173 29.814 20.861 38.0307 22.511 46.2453C22.8032 47.7031 23.1954 49.125 24.2017 50.2859C25.9751 52.8171 28.4892 53.889 31.497 53.8968C38.7563 53.9156 46.0157 53.8968 53.2751 53.8968C59.1563 53.8968 65.0371 53.8968 70.9173 53.8968C72.2392 53.8968 73.0251 54.5906 72.997 55.6921C72.9922 56.0854 72.8483 56.4643 72.591 56.7618C72.3336 57.0592 71.9793 57.2559 71.5907 57.3171C71.3075 57.3549 71.0217 57.3701 70.736 57.3625C57.6735 57.3625 44.611 57.3625 31.5485 57.3625C25.7282 57.3625 20.9235 53.8734 19.4798 48.5015C18.8548 46.1468 18.461 43.7281 17.9813 41.3343C15.7105 30.0072 13.4423 18.677 11.1767 7.3437C11.0392 6.65776 11.086 5.74682 10.6626 5.35776C10.1938 4.92495 9.27041 5.23432 8.54541 5.22807C6.56885 5.21089 4.58916 5.18432 2.60791 5.22807C1.52822 5.26557 0.612598 5.07026 0.0141602 4.07807V2.82807Z" fill="#454950"/>
<path d="M20.8955 69.5749C20.8932 68.4342 21.1155 67.3043 21.5498 66.2496C21.9842 65.1948 22.622 64.236 23.4269 63.4277C25.0524 61.7954 27.2598 60.8758 29.5635 60.871C31.8671 60.8662 34.0783 61.7768 35.7106 63.4023C36.5189 64.2072 37.1607 65.1634 37.5993 66.2164C38.038 67.2693 38.265 68.3983 38.2674 69.539C38.2722 71.8426 37.3616 74.0538 35.7361 75.6861C34.1105 77.3184 31.9031 78.2381 29.5994 78.2429C27.2958 78.2476 25.0846 77.3371 23.4523 75.7115C21.82 74.086 20.9003 71.8785 20.8955 69.5749Z" fill="#454950"/>
<path d="M73.0127 69.5937C73.0077 71.313 72.4927 72.9922 71.5329 74.4186C70.573 75.845 69.2116 76.9545 67.6208 77.6068C66.03 78.259 64.2815 78.4245 62.5966 78.0824C60.9117 77.7403 59.3662 76.9059 58.1557 75.685C56.9453 74.464 56.1243 72.9114 55.7968 71.2236C55.4693 69.5358 55.6499 67.7887 56.3158 66.2037C56.9818 64.6186 58.1031 63.2667 59.5377 62.3193C60.9724 61.3718 62.6559 60.8714 64.3752 60.8812C66.6744 60.8961 68.8741 61.8212 70.4929 63.454C72.1116 65.0869 73.0177 67.2945 73.0127 69.5937Z" fill="#454950"/>
</svg>

