<svg width="80" height="80" viewBox="0 0 80 80" fill="none" xmlns="http://www.w3.org/2000/svg">
<path d="M0.0185547 74.3563C0.91543 72.1485 1.58105 69.8594 2.3373 67.6016C4.87376 60.0443 7.39408 52.4813 9.89824 44.9125C10.5467 42.9688 11.2061 42.5 13.267 42.5C14.3076 42.5 15.3498 42.5266 16.392 42.4891C16.8936 42.4719 17.1732 42.6094 17.4154 43.0844C21.8311 51.6078 27.8123 58.9219 34.8436 65.411C37.8826 68.2235 42.2029 68.1531 45.2232 65.3531C51.6373 59.4156 57.1545 52.7438 61.4982 45.1344C61.8967 44.4344 62.2795 43.7281 62.6264 42.9969C62.8076 42.611 63.0342 42.475 63.4607 42.486C64.6826 42.5156 65.9061 42.486 67.1295 42.4969C68.6654 42.4969 69.4873 43.086 69.9795 44.5453C71.0311 47.6703 72.067 50.7953 73.1045 53.9313C75.3055 60.5334 77.5071 67.1349 79.7092 73.736C79.7795 73.9453 79.7654 74.2047 79.9857 74.361V75.7672C79.1686 77.275 77.8404 77.5219 76.2451 77.511C68.1826 77.4563 60.1201 77.486 52.0561 77.486C35.7227 77.486 19.3894 77.486 3.05605 77.486C2.19512 77.486 1.38574 77.3875 0.76543 76.7297C0.500037 76.4203 0.250749 76.0975 0.0185547 75.7625V74.3563Z" fill="#299EF4"/>
<path d="M62.5006 25.2109C62.4241 28.7567 61.7424 32.2634 60.4849 35.5797C57.5959 43.3625 52.8974 49.9906 47.3771 56.0937C45.6614 58.0167 43.8486 59.8509 41.9459 61.589C40.6146 62.7875 39.3896 62.8093 38.0849 61.5984C31.8865 55.8422 26.4912 49.4359 22.4256 41.9828C20.0959 37.7109 18.4021 33.2109 17.7131 28.3562C16.1537 17.3968 22.8131 6.78435 33.3443 3.52497C44.7506 -2.98023e-05 57.0037 6.07028 61.0943 17.2765C62.0318 19.8218 62.4521 22.4453 62.5006 25.2109ZM40.0006 35C41.9799 35.0034 43.9157 34.4193 45.5629 33.3217C47.21 32.2241 48.4944 30.6624 49.2534 28.8344C50.0123 27.0063 50.2117 24.9942 49.8263 23.0527C49.4409 21.1113 48.488 19.3279 47.0882 17.9284C45.6885 16.5289 43.905 15.5762 41.9635 15.1911C40.022 14.806 38.0098 15.0057 36.1819 15.7649C34.354 16.5242 32.7924 17.8088 31.6951 19.4561C30.5978 21.1035 30.014 23.0394 30.0178 25.0187C30.0256 27.6638 31.0799 30.1982 32.9504 32.0684C34.8209 33.9386 37.3555 34.9925 40.0006 35Z" fill="#454950"/>
<path d="M39.9999 35C38.0205 35 36.0856 34.4125 34.4404 33.3121C32.7951 32.2116 31.5134 30.6476 30.7576 28.8181C30.0018 26.9887 29.806 24.9761 30.1949 23.0353C30.5838 21.0944 31.54 19.3127 32.9422 17.9157C34.3445 16.5186 36.1298 15.5692 38.0721 15.1876C40.0144 14.806 42.0262 15.0094 43.8528 15.772C45.6794 16.5346 47.2386 17.8222 48.3329 19.4716C49.4272 21.121 50.0074 23.0581 49.9999 25.0375C49.9867 27.6821 48.9277 30.2142 47.0542 32.0807C45.1806 33.9473 42.6446 34.9967 39.9999 35Z" fill="#FEFEFE"/>
</svg>
