<svg width="80" height="80" viewBox="0 0 80 80" fill="none" xmlns="http://www.w3.org/2000/svg">
<path d="M0 65.0054V15.0008L0.312689 14.9054C0.403369 15.1305 0.625379 15.1696 0.812992 15.2415C5.31885 16.935 9.8247 18.6269 14.3306 20.3173C21.7621 23.1061 29.1937 25.8902 36.6253 28.6697C37.7901 29.1027 38.9079 29.6951 40.1649 29.8608C39.9492 30.2204 40.0086 30.6206 40.0086 31.0051C40.0086 43.4401 40.0086 55.8751 40.0086 68.3101C40.0086 71.8743 40.0086 75.4385 40.0086 79.0026C40.0086 79.3153 40.154 79.7092 39.6959 79.8593C39.5958 79.8311 39.4942 79.8077 39.3989 79.7717L0 65.0054ZM20.0121 65.1727C20.0121 63.6095 19.9808 62.1338 20.0278 60.6597C20.0465 60.0484 19.898 59.7108 19.2757 59.5373C18.5784 59.3434 17.9124 59.0386 17.2307 58.7838L10.0014 56.0888C10.0014 57.6254 10.0405 59.0745 9.98417 60.5221C9.95759 61.199 10.1233 61.5679 10.8128 61.7461C11.4616 61.9134 12.0792 62.2151 12.7108 62.4449L20.0121 65.1727Z" fill="#299EF4" fill-opacity="0.75"/>
<path d="M39.6821 79.8656C40.1512 79.7093 39.9948 79.3185 39.9948 79.009C40.0042 75.4448 40.0042 71.8806 39.9948 68.3165C39.9948 55.8825 39.9948 43.4475 39.9948 31.0115C39.9948 30.6269 39.9276 30.2298 40.1512 29.8672C43.1467 28.7588 46.1485 27.6708 49.1332 26.5359C50.9999 25.8262 52.9073 25.2244 54.7178 24.3709C55.2072 24.5272 54.9914 24.9383 54.993 25.2306C55.0065 30.4414 55.0096 35.6491 55.0023 40.8536V41.8181C55.1273 41.8088 55.2513 41.7889 55.3729 41.7587C58.42 40.6207 61.4703 39.4686 64.5159 38.3462C64.9631 38.182 65.0084 37.9022 65.0084 37.5083C64.999 31.8806 64.9943 26.2566 64.9943 20.6363C65.1835 20.5487 65.368 20.4471 65.5619 20.3752C69.8978 18.7495 74.2327 17.1227 78.5666 15.4948C78.9622 15.3385 79.4484 15.3385 79.6876 14.8867L80.0003 15.0071V65.0055C69.4345 68.9657 58.8687 72.9259 48.303 76.8861C45.5794 77.91 42.8684 78.9621 40.1512 80.0001H39.6821C39.6995 79.9569 39.6995 79.9087 39.6821 79.8656Z" fill="#299EF4"/>
<path d="M54.7236 24.3708C52.9131 25.2243 51.0057 25.8262 49.1389 26.5359C46.1543 27.6645 43.1525 28.7479 40.1601 29.8609C38.9093 29.6952 37.7852 29.1027 36.6204 28.6697C29.1826 25.908 21.75 23.1239 14.3225 20.3173C9.8167 18.628 5.31084 16.9361 0.80499 15.2415C0.612687 15.1696 0.395367 15.1305 0.304688 14.9054C0.47354 14.8351 0.637702 14.76 0.808117 14.696C10.9664 10.8879 21.123 7.07832 31.2781 3.26716C34.1408 2.19634 36.9925 1.09114 39.8474 0H40.1601C40.393 0.1063 40.6291 0.226669 40.8605 0.312647L79.6934 14.8804C79.4542 15.3291 78.9679 15.34 78.5724 15.4885C74.2406 17.1237 69.9057 18.7505 65.5676 20.3689C65.3738 20.4408 65.1893 20.5424 65.0001 20.63C60.2488 18.5071 55.4912 16.3952 50.7493 14.252C50.5232 14.135 50.2726 14.0731 50.0179 14.0715C49.7633 14.0699 49.5119 14.1285 49.2843 14.2426C47.4082 15.0774 45.5024 15.8559 43.6122 16.6609C42.4599 17.1518 41.3139 17.652 40.0631 18.1913C40.2898 18.3133 40.3758 18.3695 40.4696 18.4086C44.0546 19.8843 47.6474 21.3428 51.223 22.8435C52.3956 23.3344 53.6182 23.7158 54.7236 24.3708Z" fill="#299EF4" fill-opacity="0.619608"/>
<path d="M20.0047 65.1713L12.7112 62.445C12.0859 62.2089 11.4605 61.9135 10.8132 61.7462C10.1237 61.568 9.95801 61.1991 9.98459 60.5222C10.0409 59.0746 10.0018 57.6255 10.0018 56.0889L17.2233 58.7839C17.905 59.0387 18.571 59.3435 19.2683 59.5374C19.8937 59.7109 20.0391 60.0485 20.0204 60.6598C19.9734 62.1339 20.0047 63.608 20.0047 65.1713Z" fill="#454950"/>
<path d="M54.7234 24.3707C53.6181 23.722 52.3955 23.3406 51.2229 22.8497C47.6473 21.349 44.0545 19.8905 40.4695 18.4148C40.3757 18.3757 40.2897 18.3195 40.063 18.1975C41.3137 17.6582 42.4597 17.158 43.612 16.6671C45.5022 15.8621 47.4065 15.0836 49.2842 14.2488C49.5118 14.1347 49.7632 14.076 50.0178 14.0777C50.2724 14.0793 50.523 14.1412 50.7491 14.2582C55.4911 16.4014 60.2486 18.5133 65 20.6362C65 26.2638 65.0047 31.8878 65.014 37.5081C65.014 37.9021 64.9687 38.1819 64.5215 38.346C61.4681 39.4684 58.4241 40.6205 55.3785 41.7586C55.2569 41.7888 55.1329 41.8086 55.008 41.818V40.8472C55.008 35.6364 55.0048 30.4288 54.9986 25.2243C54.997 24.9319 55.2128 24.5271 54.7234 24.3707Z" fill="#454950"/>
</svg>
