<svg width="78" height="80" viewBox="0 0 78 80" fill="none" xmlns="http://www.w3.org/2000/svg">
<path d="M32.2814 79.9876C31.8845 79.7079 31.4017 79.747 30.9595 79.6407C28.1562 78.9649 25.6468 77.4002 23.8061 75.1805C21.9654 72.9607 20.8923 70.2051 20.747 67.3251C20.7189 66.7501 20.522 66.6626 20.0142 66.6641C15.6173 66.6829 11.2199 66.6829 6.822 66.6641C3.697 66.6548 1.32825 64.7313 0.82356 61.7204C0.475122 59.6438 1.13606 57.847 2.722 56.461C5.75637 53.8048 8.047 50.6407 9.41262 46.8298C10.2914 44.3775 10.7371 41.791 10.7298 39.186C10.7298 36.1923 10.7298 33.199 10.7298 30.2063C10.7501 18.8501 18.4001 9.43915 29.5282 7.11884C32.6204 6.47509 35.7251 6.5454 38.8236 7.17821C39.3486 7.28446 39.2923 7.49071 39.1361 7.85946C37.8224 10.9345 37.2343 14.2706 37.4173 17.6095C37.8986 25.9985 41.8017 32.3626 48.9329 36.7563C51.3486 38.2438 54.0001 39.1501 56.7907 39.6251C57.2861 39.7079 57.4032 39.8798 57.4298 40.3563C57.7782 46.5126 60.2001 51.7079 64.7611 55.8688C65.9611 56.9626 66.997 58.1251 67.2611 59.7923C67.8454 63.5298 65.1892 66.6376 61.347 66.6673C57.1048 66.6938 52.8642 66.6673 48.622 66.6673C47.4126 66.6673 47.4126 66.6673 47.3032 67.8876C47.0596 70.5607 46.0135 73.0976 44.3022 75.1655C42.5909 77.2334 40.2945 78.7357 37.7142 79.4751C37.0517 79.661 36.3798 79.8126 35.7111 79.9798L32.2814 79.9876Z" fill="#299EF4"/>
<path d="M62.5828 0.0109863C63.4265 0.210986 64.2781 0.387549 65.1156 0.615674C72.5578 2.64692 77.7624 9.72817 77.3656 17.2704C76.9437 25.2735 71.2999 31.75 63.5749 33.0938C54.2781 34.7125 45.4499 28.2422 44.1859 18.8875C42.9999 10.1079 48.9593 1.90317 57.6781 0.293799C57.9609 0.242236 58.3031 0.293799 58.5218 0.0156738L62.5828 0.0109863Z" fill="#454950"/>
</svg>
