<svg width="40" height="26" viewBox="0 0 40 26" fill="none" xmlns="http://www.w3.org/2000/svg">
<path d="M39.3949 0.257538L38.1989 3.02687H35.0936L29.5012 19.6429H8.18938L0.760254 4.41154H27.8239L26.9159 7.18087H5.60247L10.3304 16.8735H27.1172L32.6419 0.257538H39.3949ZM14.4434 21.0275C13.1105 21.0275 12.0287 21.958 12.0287 23.1045C12.0287 24.2524 13.1105 25.1815 14.4434 25.1815C15.7763 25.1815 16.858 24.2524 16.858 23.1045C16.858 21.958 15.7763 21.0275 14.4434 21.0275ZM25.5508 11.3349L22.4923 21.0275C21.1594 21.0275 20.0776 21.9566 20.0776 23.1045C20.0776 24.2524 21.1594 25.1815 22.4923 25.1815C23.8252 25.1815 24.9069 24.2524 24.9069 23.1045C24.9069 21.958 23.8252 21.0275 22.4923 21.0275L25.5508 11.3349Z" fill="white"/>
</svg>
